HIERARCHY
ROOT Hips
{
 OFFSET 0.000000 0.000000 0.000000
 CHANNELS 6 Xposition Yposition Zposition Yrotation Xrotation Zrotation
 JOINT Chest
 {
  OFFSET 0.000000 9.585900 0.002600
  CHANNELS 3 Yrotation Xrotation Zrotation
  JOINT Chest2
  {
   OFFSET 0.000000 9.601200 -0.005300
   CHANNELS 3 Yrotation Xrotation Zrotation
   JOINT Chest3
   {
    OFFSET 0.000000 9.561800 0.000000
    CHANNELS 3 Yrotation Xrotation Zrotation
    JOINT Chest4
    {
     OFFSET 0.000000 9.552100 0.000000
     CHANNELS 3 Yrotation Xrotation Zrotation
     JOINT Neck
     {
      OFFSET 0.000000 14.453000 0.000000
      CHANNELS 3 Yrotation Xrotation Zrotation
      JOINT Head
      {
       OFFSET 0.000000 8.936500 -0.011300
       CHANNELS 3 Yrotation Xrotation Zrotation
       End Site
       {
        OFFSET 0.000000 17.073600 -0.006000
       }
      }
     }
     JOINT RightCollar
     {
      OFFSET -2.921100 9.558500 0.000000
      CHANNELS 3 Yrotation Xrotation Zrotation
      JOINT RightShoulder
      {
       OFFSET -13.519700 0.000000 0.000000
       CHANNELS 3 Yrotation Xrotation Zrotation
       JOINT RightElbow
       {
        OFFSET 0.000000 -29.696600 0.000000
        CHANNELS 3 Yrotation Xrotation Zrotation
        JOINT RightWrist
        {
         OFFSET 0.000000 -24.004700 0.000000
         CHANNELS 3 Yrotation Xrotation Zrotation
         End Site
         {
          OFFSET 0.000000 -17.728500 0.000000
         }
        }
       }
      }
     }
     JOINT LeftCollar
     {
      OFFSET 2.921100 9.558500 0.000000
      CHANNELS 3 Yrotation Xrotation Zrotation
      JOINT LeftShoulder
      {
       OFFSET 13.519700 0.000000 0.000000
       CHANNELS 3 Yrotation Xrotation Zrotation
       JOINT LeftElbow
       {
        OFFSET 0.000000 -29.696600 0.000000
        CHANNELS 3 Yrotation Xrotation Zrotation
        JOINT LeftWrist
        {
         OFFSET 0.000000 -24.004700 0.000000
         CHANNELS 3 Yrotation Xrotation Zrotation
         End Site
         {
          OFFSET 0.000000 -17.728500 0.000000
         }
        }
       }
      }
     }
    }
   }
  }
 }
 JOINT RightHip
 {
  OFFSET -7.771700 -0.012900 -0.001300
  CHANNELS 3 Yrotation Xrotation Zrotation
  JOINT RightKnee
  {
   OFFSET 0.000000 -40.869800 0.001200
   CHANNELS 3 Yrotation Xrotation Zrotation
   JOINT RightAnkle
   {
    OFFSET 0.000000 -39.717900 0.002100
    CHANNELS 3 Yrotation Xrotation Zrotation
    JOINT RightToe
    {
     OFFSET 0.000000 -4.965400 11.033500
     CHANNELS 3 Yrotation Xrotation Zrotation
     End Site
     {
      OFFSET 0.000000 -1.423100 5.872300
     }
    }
   }
  }
 }
 JOINT LeftHip
 {
  OFFSET 7.771700 -0.012900 -0.001300
  CHANNELS 3 Yrotation Xrotation Zrotation
  JOINT LeftKnee
  {
   OFFSET 0.000000 -40.869800 0.001200
   CHANNELS 3 Yrotation Xrotation Zrotation
   JOINT LeftAnkle
   {
    OFFSET 0.000000 -39.717900 0.002100
    CHANNELS 3 Yrotation Xrotation Zrotation
    JOINT LeftToe
    {
     OFFSET 0.000000 -4.965400 11.033500
     CHANNELS 3 Yrotation Xrotation Zrotation
     End Site
     {
      OFFSET 0.000000 -1.423100 5.872300
     }
    }
   }
  }
 }
}
MOTION
Frames: 8
Frame Time: 0.008333
-50.442303 62.212136 13.775414 176.294613 -53.442077 0.654288 4.315079 26.959296 0.647452 0.648781 4.538229 0.072733 1.033781 7.196793 0.139793 3.294312 21.721003 0.860449 2.272882 16.490552 2.431974 3.396449 -5.208795 3.709494 6.774221 6.907935 5.912710 -0.624352 -12.358087 -12.998796 -140.069103 -58.683985 167.817521 21.314857 -3.617234 -28.825190 -9.560771 3.210232 -0.918780 -6.307955 -9.443421 20.605836 -176.300960 -73.705644 155.709242 -1.670514 -4.008305 0.942829 3.314312 -13.346126 -7.579956 3.664492 61.703032 -0.905170 1.460189 -9.495534 10.641717 0.041184 -0.169405 0.025047 0.529962 -2.419326 6.239523 120.845116 84.039997 129.367505 -4.806225 -16.398498 -10.284261 0.455479 -21.586211 -0.876560
-50.442390 62.211266 13.773271 176.300132 -53.420749 0.647688 4.319792 26.950903 0.645485 0.649701 4.535728 0.072256 1.041515 7.204291 0.129128 3.303474 21.710392 0.860773 2.342304 16.467652 2.416373 3.493656 -5.238176 3.668153 6.773684 6.895450 5.929525 -0.618460 -12.355610 -13.007994 -140.025520 -58.685712 167.790397 21.315188 -3.611415 -28.826436 -9.540403 3.197257 -0.906332 -6.335474 -9.442623 20.617106 -176.338154 -73.700735 155.743421 -1.670207 -4.014471 0.942440 3.313680 -13.368649 -7.577284 3.669149 61.708757 -0.902761 1.458637 -9.498541 10.643857 0.038633 -0.171987 0.024264 0.526746 -2.441141 6.241203 120.882824 84.038820 129.406932 -4.803386 -16.399863 -10.285922 0.451410 -21.588221 -0.875624
-50.441647 62.210777 13.770750 176.300983 -53.402680 0.638703 4.327036 26.946537 0.645303 0.650970 4.534248 0.071949 1.048329 7.202970 0.130069 3.299949 21.700004 0.868445 2.406115 16.459268 2.387138 3.608883 -5.269376 3.615173 6.775957 6.891479 5.929773 -0.613972 -12.353366 -13.013824 -139.980884 -58.688253 167.770837 21.315133 -3.607893 -28.825469 -9.507355 3.189143 -0.914715 -6.363994 -9.443700 20.627359 -176.399252 -73.684294 155.817314 -1.670339 -4.006668 0.924818 3.315610 -13.387069 -7.568309 3.659896 61.712655 -0.908709 1.458008 -9.501501 10.642698 0.041206 -0.172608 0.025042 0.524977 -2.458543 6.250876 120.929365 84.039024 129.454325 -4.804753 -16.402040 -10.282873 0.454327 -21.591280 -0.879274
-50.440948 62.208759 13.769288 176.314496 -53.373618 0.617980 4.334034 26.931611 0.652361 0.651830 4.533009 0.071563 1.051753 7.201241 0.127161 3.302738 21.696753 0.870050 2.468048 16.442644 2.367487 3.726147 -5.302785 3.565130 6.784908 6.884075 5.933519 -0.622527 -12.357384 -13.012202 -139.942113 -58.688922 167.754767 21.323778 -3.605258 -28.839729 -9.498690 3.179129 -0.905204 -6.360016 -9.463766 20.627090 -176.475081 -73.672365 155.890394 -1.666074 -4.056464 0.942723 3.310929 -13.417035 -7.557997 3.648011 61.716757 -0.917141 1.457563 -9.504417 10.642645 0.037974 -0.172870 0.022259 0.515948 -2.488573 6.262019 120.989962 84.035935 129.515190 -4.801341 -16.413180 -10.283252 0.451733 -21.585751 -0.880251
-50.441295 62.209089 13.765952 176.322535 -53.362829 0.607103 4.344300 26.935500 0.653297 0.653053 4.531958 0.071210 1.047626 7.192724 0.131616 3.329548 21.710187 0.849288 2.522593 16.411153 2.373301 3.846670 -5.339375 3.517148 6.768312 6.863615 5.964772 -0.579239 -12.357182 -13.042961 -139.915772 -58.682147 167.707262 21.331691 -3.602895 -28.853760 -9.506536 3.163559 -0.870825 -6.360601 -9.479800 20.629541 -176.613300 -73.639990 156.068537 -1.673431 -4.024421 0.886100 3.310308 -13.426270 -7.552947 3.651256 61.720633 -0.912588 1.450260 -9.508892 10.643371 0.040354 -0.173505 0.022508 0.512343 -2.498221 6.267569 121.014795 84.033788 129.540789 -4.800702 -16.415842 -10.283039 0.454360 -21.587566 -0.882135
-50.442842 62.209476 13.762488 176.329715 -53.353382 0.602543 4.364006 26.948684 0.644697 0.645563 4.520602 0.078909 1.042755 7.186202 0.136481 3.342797 21.708380 0.845397 2.588231 16.390983 2.359836 3.972983 -5.377053 3.468778 6.758992 6.860245 5.977895 -0.545076 -12.354252 -13.069706 -139.887146 -58.675669 167.671048 21.329798 -3.594254 -28.846491 -9.483490 3.156482 -0.863585 -6.346456 -9.515572 20.619153 -176.686350 -73.635146 156.113298 -1.673772 -4.015758 0.859637 3.310590 -13.432979 -7.555548 3.658241 61.723960 -0.905837 1.450123 -9.519764 10.642694 0.037209 -0.169854 0.024676 0.510151 -2.507556 6.267049 121.032782 84.032784 129.560533 -4.806340 -16.412868 -10.278536 0.456042 -21.594173 -0.883803
-50.443368 62.208599 13.760030 176.329789 -53.335625 0.595470 4.377347 26.937093 0.648001 0.655349 4.527139 0.072498 1.040155 7.180949 0.142958 3.344557 21.698627 0.848628 2.661232 16.369130 2.342875 4.108114 -5.412869 3.420211 6.751373 6.860236 5.988693 -0.519358 -12.351704 -13.095017 -139.856302 -58.671987 167.643563 21.310524 -3.584603 -28.809159 -9.458037 3.154285 -0.861217 -6.350174 -9.530862 20.617464 -176.755588 -73.616489 156.186271 -1.677455 -4.029999 0.841944 3.311947 -13.449377 -7.545526 3.664868 61.725817 -0.904496 1.446717 -9.530793 10.634083 0.035902 -0.166939 0.031131 0.512198 -2.525526 6.275492 121.048823 84.028542 129.577350 -4.806480 -16.415213 -10.276060 0.455782 -21.595648 -0.887126
-50.444885 62.207662 13.757610 176.337139 -53.318622 0.586521 4.379103 26.922095 0.648583 0.653538 4.525751 0.074339 1.048153 7.180323 0.136318 3.341367 21.696728 0.856405 2.742804 16.341961 2.318940 4.250201 -5.444235 3.372968 6.749424 6.864081 5.994718 -0.497571 -12.352667 -13.122213 -139.827608 -58.667028 167.622479 21.317392 -3.579128 -28.829725 -9.427130 3.150190 -0.869716 -6.349793 -9.545067 20.617482 -176.829556 -73.598225 156.267380 -1.687911 -4.037327 0.819892 3.308481 -13.466335 -7.543160 3.668605 61.729993 -0.902188 1.445056 -9.538768 10.630438 0.035255 -0.165597 0.032452 0.508904 -2.543946 6.280459 121.117808 84.030375 129.646143 -4.805293 -16.415273 -10.275251 0.458388 -21.599309 -0.886228
